<?xml version="1.0" standalone="no"?><!DOCTYPE svg PUBLIC "-//W3C//DTD SVG 1.1//EN" "http://www.w3.org/Graphics/SVG/1.1/DTD/svg11.dtd"><svg t="1767999367104" class="icon" viewBox="0 0 1024 1024" version="1.1" xmlns="http://www.w3.org/2000/svg" p-id="7262" xmlns:xlink="http://www.w3.org/1999/xlink" width="200" height="200"><path d="M290.88 429.696L263.04 512H192l119.168-320h82.176L512 512H437.312l-27.84-82.304H290.88z m104.576-47.104L352 253.184h-3.136l-43.456 129.408H395.52z" p-id="7263"></path><path d="M0 128a128 128 0 0 1 128-128h448a128 128 0 0 1 128 128v192h192a128 128 0 0 1 128 128v448a128 128 0 0 1-128 128H448a128 128 0 0 1-128-128v-192H128a128 128 0 0 1-128-128V128z m128-64a64 64 0 0 0-64 64v448a64 64 0 0 0 64 64h448a64 64 0 0 0 64-64V128a64 64 0 0 0-64-64H128z m456.832 639.68c12.352 19.264 25.728 37.312 40.32 54.144-47.872 36.8-107.072 64.064-177.152 82.688 11.392 13.888 28.864 40.64 35.52 55.488 72-22.976 133.12-54.016 184.704-95.616 49.728 42.56 111.296 74.56 187.52 94.208 8.512-16.256 26.496-43.072 40.256-56.96-72-16.192-131.648-44.416-180.48-82.176 43.584-47.808 78.208-105.664 103.744-176.448H896V512h-192v67.008h48.96c-20.352 54.016-47.36 98.944-81.408 136.32a388.224 388.224 0 0 1-26.56-31.488 127.232 127.232 0 0 1-60.16 19.84z" p-id="7264"></path></svg>